<?xml version="1.0" encoding="UTF-8"?>
<svg xmlns="http://www.w3.org/2000/svg" viewBox="0 0 1600 1000" preserveAspectRatio="xMidYMid meet" aria-hidden="true">
  <title>Somerville wards (background)</title>
  <g fill="#dde5d9" stroke="#a8b5a3" stroke-width="2" stroke-linejoin="round" opacity="0.55">
    <polygon points="1236.9,545.2 1239.8,555.5 1248.2,570.8 1248.6,571.4 1248.8,571.9 1249.4,573.0 1237.1,596.3 1236.1,598.2 1217.3,633.8 1217.1,634.1 1216.2,635.8 1212.1,643.6 1211.1,645.5 1209.3,649.0 1207.4,652.6 1206.0,655.2 1204.7,657.6 1203.3,660.5 1202.3,662.3 1201.9,663.0 1199.3,667.9 1196.3,673.7 1194.2,677.7 1190.4,684.9 1188.3,688.9 1188.1,689.4 1186.9,691.6 1186.7,692.0 1185.1,695.0 1180.9,703.0 1174.6,715.1 1170.7,722.5 1167.5,728.5 1167.5,728.5 1160.8,741.2 1160.8,741.2 1160.2,742.4 1156.0,750.4 1144.6,757.3 1139.6,760.5 1137.3,762.4 1137.3,762.5 1137.3,762.7 1137.5,764.1 1137.5,764.2 1137.8,766.3 1141.3,788.4 1142.8,788.7 1149.4,790.2 1155.0,791.5 1161.2,792.8 1168.9,794.6 1171.6,795.2 1174.0,795.8 1178.3,796.7 1180.7,797.3 1181.2,797.4 1185.0,798.3 1186.9,798.7 1187.3,798.8 1187.8,798.9 1189.6,799.3 1189.8,799.3 1190.5,799.5 1191.6,799.7 1192.8,800.0 1193.2,800.1 1193.9,800.2 1195.2,800.6 1196.1,800.8 1197.3,801.0 1198.4,801.3 1199.3,801.5 1200.4,801.7 1201.0,801.9 1202.8,802.3 1203.9,802.5 1204.4,802.6 1208.4,803.5 1211.6,804.3 1213.5,804.7 1216.4,805.4 1217.7,809.4 1221.5,821.4 1222.8,825.5 1224.2,830.0 1225.9,835.4 1228.2,842.5 1230.5,850.0 1231.7,853.9 1233.6,859.9 1234.7,863.2 1235.2,864.7 1236.5,869.0 1242.1,886.8 1242.8,888.6 1243.7,891.7 1244.4,893.8 1244.8,895.1 1245.1,896.0 1245.4,896.9 1245.6,897.4 1246.0,898.5 1246.5,900.4 1247.6,903.8 1249.7,910.5 1250.6,913.5 1252.2,918.5 1254.6,926.4 1257.0,933.5 1258.0,937.1 1260.0,943.9 1260.6,946.0 1261.9,950.7 1261.5,950.8 1260.8,951.0 1259.9,951.3 1257.9,952.0 1256.3,952.6 1253.8,953.4 1252.1,954.2 1248.9,955.8 1247.0,956.8 1246.9,956.8 1245.1,957.8 1244.2,958.2 1243.5,958.5 1242.7,958.7 1241.8,959.0 1240.8,959.2 1240.1,959.4 1239.3,959.6 1238.8,959.6 1237.5,959.7 1236.4,959.6 1235.6,959.5 1234.7,959.4 1234.0,959.3 1233.3,959.1 1232.5,958.8 1231.2,958.4 1230.4,958.0 1229.5,957.4 1228.8,956.9 1228.2,956.3 1227.4,955.4 1227.1,954.8 1226.6,954.1 1225.8,952.7 1225.3,952.0 1225.0,951.4 1224.8,951.1 1224.2,949.6 1223.5,948.2 1223.1,947.1 1222.8,945.9 1222.6,944.8 1222.2,943.9 1222.0,943.3 1221.4,942.2 1221.0,941.2 1220.6,940.4 1220.3,939.8 1219.9,939.3 1219.5,938.6 1218.7,937.6 1218.7,937.6 1218.3,937.0 1218.2,936.9 1217.4,936.2 1216.6,935.4 1215.4,934.8 1215.1,934.7 1214.3,934.5 1213.7,934.4 1212.5,934.4 1211.4,934.4 1210.3,934.6 1209.0,934.9 1207.5,935.3 1206.3,935.7 1206.1,935.8 1204.5,936.5 1203.4,937.2 1202.8,937.5 1201.8,937.9 1200.7,938.4 1197.9,939.5 1193.4,941.0 1192.7,941.3 1192.1,941.5 1191.3,941.6 1190.7,941.6 1190.1,941.6 1189.4,941.5 1188.8,941.5 1187.9,941.4 1187.2,941.4 1186.3,941.2 1185.5,941.0 1185.0,940.9 1184.4,940.6 1183.5,940.0 1182.2,939.1 1180.9,938.0 1180.2,937.4 1179.5,936.7 1178.4,935.5 1178.0,935.1 1175.8,932.7 1175.6,932.4 1174.9,931.6 1174.5,931.1 1173.9,930.7 1173.7,930.5 1173.3,930.1 1172.7,929.6 1172.1,929.2 1171.9,929.1 1171.2,928.7 1170.4,928.2 1169.8,927.9 1168.9,927.7 1168.0,927.6 1167.1,927.5 1166.3,927.5 1165.5,927.6 1164.5,927.7 1163.8,927.9 1162.9,928.1 1162.0,928.3 1161.4,928.6 1160.9,928.8 1160.7,928.8 1160.2,929.1 1158.2,930.0 1157.3,930.4 1157.1,930.5 1155.9,931.1 1155.6,931.1 1155.3,931.2 1154.8,931.2 1154.1,931.2 1153.3,930.8 1152.8,930.5 1152.2,930.1 1151.6,929.6 1151.2,929.4 1150.5,928.8 1149.8,928.3 1149.6,928.1 1149.3,928.0 1149.0,927.9 1148.7,927.8 1148.1,927.8 1147.2,927.8 1146.5,927.8 1145.8,927.9 1145.3,928.0 1144.5,928.2 1144.4,928.3 1143.7,928.6 1142.5,929.0 1141.5,929.3 1140.8,929.7 1140.1,930.1 1139.7,930.3 1138.0,931.1 1135.8,928.5 1124.4,920.3 1118.5,915.0 1113.6,910.0 1095.9,885.5 1073.3,851.9 1047.8,816.5 1036.2,799.4 1030.9,792.7 1025.1,795.1 1023.7,795.8 1020.9,797.1 1018.8,797.6 1016.6,798.1 1012.3,800.0 1010.8,800.7 1008.3,802.4 1007.5,802.9 1005.9,803.8 1003.7,795.0 1003.5,793.5 1002.5,787.8 1000.7,780.6 998.2,773.6 995.3,768.6 993.7,765.7 989.7,759.4 988.4,757.1 984.5,750.6 980.9,743.1 977.4,736.4 976.0,732.4 977.3,733.1 978.2,733.4 980.5,733.0 983.1,731.1 984.2,725.3 982.5,722.8 984.6,711.7 986.2,704.6 984.1,703.5 981.1,700.4 974.7,694.2 963.0,684.0 966.7,675.8 970.1,667.3 972.9,668.5 976.8,659.2 980.1,651.9 983.4,643.1 985.2,639.7 986.5,636.7 990.2,628.2 980.5,623.8 973.7,620.8 973.7,620.8 975.1,617.7 981.1,607.2 985.7,599.9 991.2,590.8 994.8,593.3 997.5,595.2 997.6,595.3 999.6,592.2 1002.8,586.4 1012.4,577.0 1020.7,569.0 1027.6,562.5 1035.8,554.7 1046.7,544.1 1054.8,535.3 1057.6,537.9 1060.9,541.6 1063.6,545.4 1066.1,549.5 1066.8,545.3 1067.5,540.1 1068.0,537.1 1068.1,536.3 1068.2,535.3 1068.8,531.8 1069.1,529.7 1069.4,527.5 1069.8,524.2 1070.6,518.9 1071.6,514.1 1072.4,510.5 1074.2,503.5 1075.5,499.9 1076.6,497.0 1080.3,483.6 1082.8,474.9 1085.6,464.3 1087.7,455.6 1090.2,445.9 1092.7,436.0 1093.3,433.9 1094.6,429.2 1094.8,428.8 1099.0,412.0 1100.4,406.9 1100.7,405.8 1102.9,407.3 1147.8,438.6 1186.7,465.8 1194.1,471.0 1211.3,478.7 1212.1,480.5 1219.8,497.9 1220.3,499.1 1227.5,519.0 1227.6,519.3 1236.9,545.2" data-ward="1" data-ward-name="Ward 1" />
    <polygon points="759.5,745.0 772.7,748.9 779.8,735.5 783.5,728.7 786.2,723.8 791.0,714.2 795.2,705.8 799.3,698.0 809.3,702.7 818.5,706.9 847.9,721.3 841.2,733.5 835.4,744.9 829.1,758.1 823.5,769.0 828.3,771.2 834.5,773.9 845.7,778.9 851.4,781.2 857.4,783.7 860.8,785.4 866.0,788.2 875.0,792.6 885.1,798.1 887.6,799.5 893.9,803.1 898.6,805.7 903.3,808.2 905.7,810.7 906.6,813.5 910.7,815.7 914.7,816.2 915.0,816.1 916.5,815.7 929.5,816.5 933.1,816.7 943.5,817.6 946.8,818.8 949.3,818.4 952.4,818.6 957.4,819.5 965.8,820.1 970.7,819.8 976.1,819.0 981.5,817.2 992.7,812.0 993.1,811.7 993.4,811.6 1003.9,808.0 1004.0,808.0 1004.9,807.9 1006.0,807.4 1006.7,807.1 1005.9,803.8 1007.5,802.9 1008.3,802.4 1010.8,800.7 1012.3,800.0 1016.6,798.1 1018.8,797.6 1020.9,797.1 1023.7,795.8 1025.1,795.1 1030.9,792.7 1036.2,799.4 1047.8,816.5 1073.3,851.9 1095.9,885.5 1113.6,910.0 1118.5,915.0 1124.4,920.3 1135.8,928.5 1138.0,931.1 1135.6,932.4 1134.9,932.8 1134.2,933.2 1133.5,933.6 1132.8,933.9 1132.1,934.2 1125.8,935.2 1125.6,935.3 1125.6,935.3 1122.2,939.4 1122.1,939.6 1120.6,940.4 1119.5,941.0 1117.9,941.9 1116.7,942.4 1115.4,943.0 1114.4,943.4 1113.4,943.8 1112.1,944.2 1111.1,944.3 1110.0,944.4 1108.5,944.4 1106.4,944.0 1104.8,943.9 1101.6,943.7 1101.4,943.7 1099.8,943.5 1099.4,943.5 1097.9,943.6 1096.3,943.4 1096.0,943.5 1095.4,943.6 1095.2,943.6 1094.6,943.7 1093.9,943.8 1093.1,943.9 1092.4,944.1 1091.7,944.2 1091.0,944.4 1090.7,944.5 1090.0,944.7 1090.0,944.7 1089.5,944.8 1089.0,944.9 1088.4,945.0 1087.8,945.0 1087.3,945.1 1086.9,945.1 1086.3,945.1 1085.6,945.1 1085.1,944.9 1084.4,944.8 1083.9,944.8 1083.2,944.6 1082.6,944.5 1082.3,944.4 1081.9,944.2 1081.7,944.1 1081.3,943.9 1080.8,943.7 1080.5,943.6 1079.9,943.3 1079.9,943.3 1079.5,943.0 1078.9,942.4 1078.4,941.8 1077.8,941.1 1077.4,940.6 1077.3,940.5 1077.0,939.9 1076.4,939.1 1075.9,938.3 1075.5,937.6 1075.3,937.2 1075.1,936.7 1075.0,936.5 1074.7,935.8 1073.6,933.4 1070.7,929.4 1070.7,929.4 1070.6,929.4 1069.8,931.0 1061.1,949.3 1060.7,949.2 1059.2,948.6 1056.3,947.7 1047.7,944.9 1039.9,942.3 1033.8,940.4 1023.4,937.0 1023.2,936.9 1011.1,933.0 1006.0,931.3 998.3,930.5 998.2,930.5 990.3,929.7 990.0,929.6 980.9,928.7 960.7,926.6 958.5,926.3 955.6,926.0 954.4,925.9 948.7,925.3 948.5,925.3 947.1,925.2 932.1,924.2 932.1,924.2 920.8,923.5 908.5,922.7 892.5,921.6 891.7,921.6 889.0,921.6 889.0,921.6 886.5,921.7 886.5,921.7 886.2,921.7 884.6,921.7 883.3,921.8 881.9,921.8 880.5,921.8 879.2,921.9 877.5,921.9 874.1,922.0 870.5,922.0 868.8,922.1 866.3,922.1 862.7,922.2 861.0,922.2 857.4,922.3 855.9,922.3 852.0,922.4 849.6,922.5 847.4,922.5 847.4,922.5 840.9,922.7 838.1,922.7 833.7,922.8 832.2,922.8 827.5,923.0 826.5,923.0 823.4,923.1 821.3,923.2 818.2,923.3 817.1,923.3 814.6,923.4 812.6,923.5 807.1,923.7 765.8,873.1 744.1,846.5 744.1,846.5 743.8,846.1 742.0,844.0 740.1,841.8 728.3,827.6 727.9,827.2 730.2,825.9 736.6,822.2 737.0,822.0 723.1,806.7 718.6,801.7 710.2,792.5 694.6,775.3 686.6,774.4 686.4,774.4 685.3,774.3 682.6,774.0 679.8,773.7 678.5,772.2 676.1,769.4 674.7,767.7 673.2,765.9 671.8,764.4 670.5,762.8 669.1,761.2 667.8,759.6 666.4,758.1 665.3,756.7 661.9,752.7 660.4,751.1 655.9,745.9 654.1,743.7 652.4,741.7 651.3,740.4 649.8,738.6 648.2,736.8 646.7,735.1 645.2,733.3 644.3,732.3 644.2,732.1 644.0,732.0 643.3,731.1 641.1,728.6 639.5,726.7 638.2,725.2 637.1,723.9 635.2,721.7 633.7,720.0 631.8,717.8 628.3,713.7 628.2,713.5 626.4,711.4 623.2,707.6 620.3,702.9 613.3,691.5 602.6,674.2 596.5,666.0 589.8,656.9 589.2,656.2 588.6,655.4 584.4,649.7 583.0,647.8 583.5,647.5 583.7,647.6 585.8,649.2 589.0,651.7 598.3,658.8 602.8,662.0 605.0,663.6 613.3,670.0 619.1,674.6 625.8,679.4 640.9,690.8 646.7,695.5 653.7,700.4 661.7,706.0 669.5,711.6 672.6,713.7 678.5,717.5 682.8,719.9 690.3,723.4 695.4,725.5 709.6,729.8 712.9,730.7 718.3,732.4 721.7,733.4 722.8,733.7 730.1,735.9 734.6,737.2 751.4,742.5 759.5,745.0" data-ward="2" data-ward-name="Ward 2" />
    <polygon points="813.7,644.4 825.6,649.9 829.5,642.2 834.5,633.4 835.9,630.9 839.5,624.2 841.0,621.4 843.4,616.8 845.7,612.7 849.4,605.7 854.2,608.5 858.1,611.2 867.4,616.8 876.8,622.6 883.2,626.5 892.6,632.5 896.4,625.4 909.2,641.9 909.8,642.6 915.5,650.6 921.2,658.3 922.1,659.5 924.3,662.4 925.4,663.9 938.0,680.6 947.2,692.6 949.7,683.1 950.3,680.7 955.8,686.7 964.1,696.8 969.0,703.4 974.7,711.1 982.5,722.8 984.2,725.3 983.1,731.1 980.5,733.0 978.2,733.4 977.3,733.1 976.0,732.4 977.4,736.4 980.9,743.1 984.5,750.6 988.4,757.1 989.7,759.4 993.7,765.7 995.3,768.6 998.2,773.6 1000.7,780.6 1002.5,787.8 1003.5,793.5 1003.7,795.0 1005.9,803.8 1006.7,807.1 1006.0,807.4 1004.9,807.9 1003.9,808.0 993.4,811.6 993.1,811.7 992.7,812.0 981.5,817.2 976.1,819.0 970.7,819.8 965.8,820.1 957.4,819.5 952.4,818.6 949.3,818.4 946.8,818.8 943.5,817.6 933.1,816.7 929.5,816.5 916.5,815.7 915.0,816.1 914.7,816.2 910.7,815.7 906.6,813.5 905.7,810.7 903.3,808.2 898.6,805.7 893.9,803.1 887.6,799.5 885.1,798.1 875.0,792.6 866.0,788.2 860.8,785.4 857.4,783.7 851.4,781.2 845.7,778.9 834.5,773.9 828.3,771.2 823.5,769.0 829.1,758.1 835.4,744.9 841.2,733.5 847.9,721.3 818.5,706.9 809.3,702.7 799.3,698.0 795.2,705.8 791.0,714.2 786.2,723.8 783.5,728.7 779.8,735.5 772.7,748.9 759.5,745.0 751.4,742.5 734.6,737.2 730.1,735.9 722.8,733.7 721.7,733.4 718.3,732.4 712.9,730.7 709.6,729.8 695.4,725.5 690.3,723.4 682.8,719.9 678.5,717.5 672.6,713.7 669.5,711.6 661.7,706.0 655.3,696.8 653.8,694.7 651.7,691.8 647.9,685.8 651.9,679.1 652.4,678.2 655.8,671.7 657.9,667.5 661.5,660.1 665.9,652.4 668.0,648.3 671.2,642.3 675.4,634.2 680.1,625.3 685.1,616.0 686.8,612.6 688.1,609.8 690.2,605.5 694.5,597.3 697.7,591.6 701.8,583.1 713.8,590.2 724.2,596.8 731.9,601.4 735.6,603.6 745.7,609.7 752.6,614.2 761.1,619.4 767.8,623.2 776.0,627.3 789.6,633.6 802.8,639.6 813.7,644.4" data-ward="3" data-ward-name="Ward 3" />
    <polygon points="1094.6,429.2 1093.3,433.9 1092.7,436.0 1090.2,445.9 1087.7,455.6 1085.6,464.3 1082.8,474.9 1080.3,483.6 1076.6,497.0 1075.5,499.9 1074.2,503.5 1072.4,510.5 1071.6,514.1 1070.6,518.9 1069.8,524.2 1069.4,527.5 1069.1,529.7 1068.8,531.8 1068.2,535.3 1068.1,536.3 1068.0,537.1 1067.5,540.1 1066.8,545.3 1066.1,549.5 1063.6,545.4 1060.9,541.6 1057.6,537.9 1054.8,535.3 1046.7,544.1 1035.8,554.7 1027.6,562.5 1020.7,569.0 1012.4,577.0 1002.8,586.4 999.6,592.2 997.6,595.3 994.8,593.3 991.2,590.8 985.7,599.9 981.1,607.2 975.1,617.7 973.7,620.8 980.5,623.8 990.2,628.2 986.5,636.7 985.2,639.7 983.4,643.1 980.1,651.9 976.8,659.2 972.9,668.5 970.1,667.3 966.7,675.8 963.0,684.0 974.7,694.2 981.1,700.4 984.1,703.5 986.2,704.6 984.6,711.7 982.5,722.8 974.7,711.1 969.0,703.4 964.1,696.8 955.8,686.7 950.3,680.7 949.7,683.1 947.2,692.6 938.0,680.6 925.4,663.9 924.3,662.4 922.1,659.5 921.2,658.3 915.5,650.6 909.8,642.6 909.2,641.9 896.4,625.4 892.6,632.5 883.2,626.5 876.8,622.6 867.4,616.8 858.1,611.2 854.2,608.5 849.4,605.7 853.6,597.8 844.3,592.8 841.6,591.0 842.9,589.6 853.9,569.5 861.7,555.5 867.5,544.7 855.6,537.6 860.2,529.1 865.9,517.4 874.0,501.4 888.9,512.3 889.7,510.0 889.2,505.7 886.4,500.4 883.8,495.5 879.9,489.0 874.3,481.5 866.1,471.2 863.7,468.5 861.3,465.8 860.6,465.0 859.7,464.1 878.5,435.1 894.8,409.8 903.2,396.8 909.0,399.1 909.7,399.4 915.3,401.6 915.3,401.6 930.4,407.6 934.6,409.3 938.0,411.1 942.4,413.7 948.3,417.2 948.8,417.5 958.7,422.7 962.5,423.7 967.8,426.4 968.6,426.7 969.4,427.4 970.9,429.0 973.1,428.2 974.6,427.6 1023.7,409.2 1067.0,392.9 1088.4,401.0 1098.2,404.8 1100.7,405.8 1100.4,406.9 1099.0,412.0 1094.8,428.8 1094.6,429.2" data-ward="4" data-ward-name="Ward 4" />
    <polygon points="692.3,411.7 696.4,413.6 697.5,414.1 713.4,421.3 714.7,421.8 716.1,422.5 717.3,423.0 719.2,423.9 721.3,424.8 724.0,426.1 726.3,427.1 728.6,428.1 732.1,429.7 733.8,430.5 737.5,432.1 739.4,433.0 741.1,433.8 743.8,435.0 745.4,435.7 748.1,437.0 750.2,437.9 752.2,438.8 754.5,439.8 756.6,440.8 761.9,443.2 763.7,444.0 763.7,444.0 776.6,449.9 787.4,454.7 791.5,456.6 801.6,461.1 802.6,461.6 808.2,464.1 816.4,467.8 820.5,469.7 823.7,471.1 827.6,472.9 830.5,474.2 832.5,475.1 834.6,476.1 836.7,477.0 837.9,477.6 838.9,478.0 838.9,478.0 839.0,477.9 841.1,478.8 842.4,479.4 843.3,479.8 846.7,481.5 848.0,482.1 848.0,482.2 848.0,482.2 853.2,474.2 859.7,464.1 860.6,465.0 861.3,465.8 863.7,468.5 866.1,471.2 874.3,481.5 879.9,489.0 883.8,495.5 886.4,500.4 889.2,505.7 889.7,510.0 888.9,512.3 874.0,501.4 865.9,517.4 860.2,529.1 855.6,537.6 867.5,544.7 861.7,555.5 853.9,569.5 842.9,589.6 841.6,591.0 844.3,592.8 853.6,597.8 849.4,605.7 845.7,612.7 843.4,616.8 841.0,621.4 839.5,624.2 835.9,630.9 834.5,633.4 829.5,642.2 825.6,649.9 813.7,644.4 802.8,639.6 789.6,633.6 776.0,627.3 767.8,623.2 761.1,619.4 752.6,614.2 745.7,609.7 735.6,603.6 731.9,601.4 724.2,596.8 713.8,590.2 701.8,583.1 697.7,591.6 694.5,597.3 690.2,605.5 688.1,609.8 686.8,612.6 685.1,616.0 680.1,625.3 675.4,634.2 671.2,642.3 668.0,648.3 665.9,652.4 661.5,660.1 657.9,667.5 655.8,671.7 652.4,678.2 651.9,679.1 647.9,685.8 651.7,691.8 653.8,694.7 655.3,696.8 661.7,706.0 653.7,700.4 646.7,695.5 640.9,690.8 625.8,679.4 619.1,674.6 613.3,670.0 605.0,663.6 602.8,662.0 598.3,658.8 589.0,651.7 585.8,649.2 583.7,647.6 583.5,647.5 584.6,646.7 584.8,646.6 584.9,646.5 584.9,646.5 589.7,643.4 591.5,642.2 593.3,640.9 593.9,640.6 594.2,640.4 594.2,640.4 594.2,640.4 593.5,639.3 593.5,639.2 586.0,626.2 586.0,626.2 586.4,626.0 599.6,616.6 599.8,616.4 600.8,615.0 604.6,620.5 606.6,623.3 613.4,614.0 616.1,608.8 621.1,598.8 625.3,590.0 626.9,586.8 630.8,579.1 635.3,569.6 641.8,556.4 644.9,549.0 657.9,556.5 669.4,562.9 675.6,551.0 681.3,540.7 686.5,531.7 688.7,526.7 688.9,526.3 690.5,523.2 694.0,517.0 691.9,517.5 684.2,514.8 675.1,511.8 664.8,508.3 653.2,504.3 641.6,500.4 631.2,496.9 650.8,457.3 674.9,408.9 683.8,413.0 679.6,406.0 681.4,406.8 683.9,407.9 691.0,411.1 692.3,411.7" data-ward="5" data-ward-name="Ward 5" />
    <polygon points="531.2,263.1 564.2,278.4 566.1,274.4 594.5,288.5 603.2,292.7 603.4,292.8 605.2,293.7 607.3,294.7 618.5,300.2 623.7,302.8 623.6,307.2 623.6,308.2 623.6,311.1 623.6,311.1 623.6,311.9 623.6,314.8 623.5,317.2 623.5,319.5 623.5,321.9 623.5,324.4 623.4,326.9 623.4,329.4 623.4,331.9 623.4,334.1 623.3,336.4 623.3,338.6 623.3,340.8 623.3,341.5 623.2,347.4 631.8,362.3 631.8,362.4 646.4,385.5 658.6,393.9 669.6,401.5 670.3,401.8 679.6,406.0 683.8,413.0 674.9,408.9 650.8,457.3 631.2,496.9 641.6,500.4 653.2,504.3 664.8,508.3 675.1,511.8 684.2,514.8 691.9,517.5 694.0,517.0 690.5,523.2 688.9,526.3 688.7,526.7 686.5,531.7 681.3,540.7 675.6,551.0 669.4,562.9 657.9,556.5 644.9,549.0 641.8,556.4 635.3,569.6 630.8,579.1 626.9,586.8 625.3,590.0 621.1,598.8 616.1,608.8 613.4,614.0 606.6,623.3 604.6,620.5 600.8,615.0 599.8,616.4 585.6,597.0 581.7,591.6 581.7,591.6 579.9,589.1 574.5,582.8 567.2,573.7 566.5,572.6 565.0,570.6 564.9,570.4 557.7,560.6 552.9,554.4 552.8,554.4 548.9,546.8 548.0,545.2 541.6,532.9 523.7,551.9 514.5,561.7 513.8,562.4 513.8,562.4 512.3,560.6 512.3,560.6 511.6,559.7 510.9,558.8 505.5,552.2 501.2,547.0 501.2,547.0 500.6,546.2 499.9,545.3 496.8,541.5 495.4,539.8 491.8,535.4 491.0,534.0 481.9,519.8 478.3,514.2 475.2,509.4 470.0,501.3 462.8,490.1 462.4,489.5 462.1,489.0 460.8,486.9 448.3,467.4 446.4,464.6 446.4,464.6 447.5,463.4 449.9,463.5 454.4,464.0 466.5,465.2 471.5,460.1 473.1,459.0 473.9,458.1 475.4,455.2 479.9,450.5 494.1,435.9 488.0,425.5 501.0,406.6 522.9,376.6 530.0,379.2 545.9,348.4 540.1,341.7 536.0,337.3 530.5,332.7 517.8,324.2 509.9,319.4 504.4,316.2 504.2,316.1 507.4,309.4 510.1,303.9 511.7,300.6 515.4,293.5 520.0,284.4 520.4,283.7 522.7,279.4 523.2,278.4 524.9,275.3 527.6,270.1 529.8,265.9 531.2,263.1 531.2,263.1" data-ward="6" data-ward-name="Ward 6" />
    <polygon points="438.3,91.8 424.6,112.6 418.4,122.0 411.0,133.2 408.3,137.3 408.3,137.3 408.8,137.5 417.6,141.6 423.4,144.3 426.0,145.6 452.1,157.8 436.3,190.0 436.5,190.2 438.8,192.6 438.9,192.7 443.8,197.7 443.8,197.8 444.4,198.4 446.1,200.1 450.0,204.1 453.9,208.2 455.5,209.8 458.3,212.7 459.3,213.7 463.4,218.0 464.0,218.6 464.0,218.6 464.2,218.8 467.7,211.6 471.1,204.6 471.4,204.7 472.5,205.2 478.9,208.2 481.1,209.2 484.1,210.6 487.1,211.9 490.1,213.4 492.3,214.4 494.3,215.3 496.3,216.2 498.8,217.4 501.2,218.4 505.2,220.3 506.0,220.7 506.2,220.8 507.0,221.1 501.4,233.2 498.3,240.0 498.2,240.1 522.0,251.1 532.8,256.1 532.9,256.1 532.2,257.6 530.0,262.5 530.0,262.5 530.1,262.6 531.2,263.1 531.2,263.1 529.8,265.9 527.6,270.1 524.9,275.3 523.2,278.4 522.7,279.4 520.0,284.4 515.4,293.5 511.7,300.6 510.1,303.9 507.4,309.4 504.2,316.1 504.4,316.2 509.9,319.4 517.8,324.2 530.5,332.7 536.0,337.3 540.1,341.7 545.9,348.4 530.0,379.2 522.9,376.6 501.0,406.6 488.0,425.5 494.1,435.9 479.9,450.5 475.4,455.2 473.9,458.1 473.1,459.0 471.5,460.1 466.5,465.2 454.4,464.0 449.9,463.5 447.5,463.4 446.4,464.6 446.4,464.6 441.1,456.4 433.0,443.8 429.2,438.0 425.2,431.8 421.2,425.7 413.9,414.4 413.1,413.1 410.9,409.8 404.6,400.1 403.5,398.4 402.8,397.3 402.6,397.0 402.4,396.7 396.4,387.4 390.3,378.0 387.9,374.4 387.8,374.2 383.4,369.3 376.7,361.9 369.6,354.1 353.5,336.3 353.3,336.0 353.1,335.8 350.4,332.8 344.1,326.3 343.2,325.4 341.3,323.4 340.9,323.0 340.8,322.9 339.9,322.0 339.1,321.2 338.5,320.6 338.1,320.1 338.1,320.1 338.1,320.1 338.3,317.8 338.3,316.2 338.4,314.4 338.5,311.5 338.5,307.8 338.6,304.2 338.6,302.5 338.6,300.3 338.6,299.7 338.6,298.6 338.7,297.2 338.7,296.2 339.3,292.6 339.7,288.8 340.6,285.0 342.8,278.6 343.3,276.9 343.6,276.1 345.0,272.3 345.8,270.2 346.1,269.7 349.5,264.1 349.5,264.0 350.1,263.2 352.1,259.1 353.6,256.8 354.0,256.1 354.8,254.7 356.7,251.4 359.6,246.0 361.4,242.2 361.8,241.5 364.4,238.2 365.3,236.6 368.1,232.0 368.9,230.7 371.2,225.7 371.5,225.2 372.6,221.1 372.9,219.7 374.0,214.0 374.2,207.3 373.7,200.8 371.4,191.3 367.5,180.1 365.2,170.4 364.2,165.0 364.1,164.6 364.6,154.8 365.9,143.5 367.0,137.8 367.9,133.3 368.4,127.8 368.9,121.5 369.7,112.2 369.7,111.4 369.7,111.2 370.8,102.2 370.9,99.1 374.6,99.2 374.9,99.2 376.6,98.6 379.3,97.7 380.1,97.1 381.4,96.1 381.7,95.6 382.2,94.9 383.1,93.2 383.7,90.0 383.6,87.6 383.5,86.0 383.2,81.2 382.9,70.9 383.2,69.4 383.9,66.5 386.1,63.7 386.6,63.4 386.6,63.3 390.2,60.9 391.9,59.8 395.7,57.4 396.4,57.1 396.7,56.9 398.4,56.1 398.4,56.1 401.1,54.7 407.3,51.8 415.4,49.3 422.8,47.0 426.0,46.0 428.2,45.2 431.7,43.8 432.5,43.5 433.1,43.3 434.3,43.0 439.9,41.5 445.3,40.3 447.5,41.0 448.5,41.4 449.3,41.9 449.7,42.3 449.9,42.5 450.0,42.6 450.0,42.7 450.0,42.7 451.8,44.7 452.5,46.3 452.4,47.2 452.3,48.0 450.1,59.0 452.2,64.1 454.2,67.2 452.8,69.4 452.0,70.6 451.3,71.8 448.7,75.8 445.0,81.6 442.2,85.8 440.6,88.3 439.3,90.3 438.3,91.8 438.3,91.8" data-ward="7" data-ward-name="Ward 7" />
  </g>
  <g font-family="Instrument Sans, -apple-system, sans-serif" font-size="22" font-weight="600" fill="#7a8077" text-anchor="middle" dominant-baseline="central" pointer-events="none">
    <text x="1119.3" y="683.4">Ward 1</text>
    <text x="879.3" y="837.3">Ward 2</text>
    <text x="834.0" y="703.6">Ward 3</text>
    <text x="963.7" y="520.2">Ward 4</text>
    <text x="737.9" y="543.3">Ward 5</text>
    <text x="575.3" y="445.6">Ward 6</text>
    <text x="433.8" y="275.6">Ward 7</text>
  </g>
</svg>
